<svg xmlns="http://www.w3.org/2000/svg" xmlns:xlink="http://www.w3.org/1999/xlink" width="250" zoomAndPan="magnify" viewBox="0 0 187.5 37.5" height="50" preserveAspectRatio="xMidYMid meet" version="1.0"><defs><g/><clipPath id="128b696000"><path d="M 67.957031 13.214844 L 81.558594 13.214844 L 81.558594 23.941406 L 67.957031 23.941406 Z M 67.957031 13.214844 " clip-rule="nonzero"/></clipPath><clipPath id="081f847de4"><path d="M 119.09375 13.214844 L 132.695312 13.214844 L 132.695312 23.941406 L 119.09375 23.941406 Z M 119.09375 13.214844 " clip-rule="nonzero"/></clipPath><clipPath id="b6216ea8a0"><path d="M 68 13.941406 L 79.246094 13.941406 L 79.246094 23 L 68 23 Z M 68 13.941406 " clip-rule="nonzero"/></clipPath><clipPath id="c98c4d3ef7"><path d="M 71 18 L 79 18 L 79 23.347656 L 71 23.347656 Z M 71 18 " clip-rule="nonzero"/></clipPath><clipPath id="fb62198a03"><path d="M 119.09375 13.941406 L 130.378906 13.941406 L 130.378906 23 L 119.09375 23 Z M 119.09375 13.941406 " clip-rule="nonzero"/></clipPath><clipPath id="bff27cdd6d"><path d="M 122 18 L 130 18 L 130 23.347656 L 122 23.347656 Z M 122 18 " clip-rule="nonzero"/></clipPath></defs><g clip-path="url(#128b696000)"><path fill="#ffc800" d="M 67.957031 13.214844 L 81.574219 13.214844 L 81.574219 23.941406 L 67.957031 23.941406 Z M 67.957031 13.214844 " fill-opacity="1" fill-rule="nonzero"/></g><g clip-path="url(#081f847de4)"><path fill="#ffc800" d="M 119.09375 13.214844 L 132.710938 13.214844 L 132.710938 23.941406 L 119.09375 23.941406 Z M 119.09375 13.214844 " fill-opacity="1" fill-rule="nonzero"/></g><g fill="#ffc800" fill-opacity="1"><g transform="translate(24.898184, 25.826421)"><g><path d="M 13.25 -15.140625 L 19.265625 -15.140625 L 7.375 7.671875 L 1.359375 7.671875 L 6.578125 -2.359375 L -0.59375 -15.140625 L 5.421875 -15.140625 L 9.640625 -7.375 Z M 13.25 -15.140625 "/></g></g></g><g fill="#ffc800" fill-opacity="1"><g transform="translate(40.936775, 25.826421)"><g><path d="M 8.34375 -15.578125 C 9.207031 -15.578125 10.0625 -15.476562 10.90625 -15.28125 C 11.757812 -15.082031 12.390625 -14.882812 12.796875 -14.6875 L 13.421875 -14.390625 L 11.71875 -10.96875 C 10.53125 -11.601562 9.40625 -11.921875 8.34375 -11.921875 C 7.757812 -11.921875 7.34375 -11.851562 7.09375 -11.71875 C 6.84375 -11.59375 6.71875 -11.351562 6.71875 -11 C 6.71875 -10.925781 6.726562 -10.847656 6.75 -10.765625 C 6.769531 -10.691406 6.8125 -10.617188 6.875 -10.546875 C 6.9375 -10.472656 6.988281 -10.410156 7.03125 -10.359375 C 7.082031 -10.316406 7.164062 -10.265625 7.28125 -10.203125 C 7.40625 -10.148438 7.5 -10.109375 7.5625 -10.078125 C 7.632812 -10.046875 7.75 -10 7.90625 -9.9375 C 8.0625 -9.882812 8.175781 -9.84375 8.25 -9.8125 C 8.332031 -9.78125 8.46875 -9.734375 8.65625 -9.671875 C 8.84375 -9.617188 8.988281 -9.582031 9.09375 -9.5625 C 9.695312 -9.382812 10.222656 -9.1875 10.671875 -8.96875 C 11.128906 -8.75 11.609375 -8.453125 12.109375 -8.078125 C 12.609375 -7.703125 12.992188 -7.226562 13.265625 -6.65625 C 13.546875 -6.09375 13.6875 -5.445312 13.6875 -4.71875 C 13.6875 -1.28125 11.296875 0.4375 6.515625 0.4375 C 5.429688 0.4375 4.398438 0.269531 3.421875 -0.0625 C 2.453125 -0.394531 1.753906 -0.726562 1.328125 -1.0625 L 0.671875 -1.59375 L 2.796875 -5.15625 C 2.953125 -5.019531 3.160156 -4.859375 3.421875 -4.671875 C 3.679688 -4.484375 4.144531 -4.226562 4.8125 -3.90625 C 5.476562 -3.582031 6.054688 -3.421875 6.546875 -3.421875 C 7.628906 -3.421875 8.171875 -3.785156 8.171875 -4.515625 C 8.171875 -4.847656 8.03125 -5.109375 7.75 -5.296875 C 7.476562 -5.484375 7.015625 -5.691406 6.359375 -5.921875 C 5.703125 -6.160156 5.1875 -6.378906 4.8125 -6.578125 C 3.863281 -7.066406 3.113281 -7.617188 2.5625 -8.234375 C 2.007812 -8.859375 1.734375 -9.679688 1.734375 -10.703125 C 1.734375 -12.242188 2.328125 -13.441406 3.515625 -14.296875 C 4.710938 -15.148438 6.320312 -15.578125 8.34375 -15.578125 Z M 8.34375 -15.578125 "/></g></g></g><g fill="#ffc800" fill-opacity="1"><g transform="translate(52.817947, 25.826421)"><g><path d="M 8.34375 -15.578125 C 9.207031 -15.578125 10.0625 -15.476562 10.90625 -15.28125 C 11.757812 -15.082031 12.390625 -14.882812 12.796875 -14.6875 L 13.421875 -14.390625 L 11.71875 -10.96875 C 10.53125 -11.601562 9.40625 -11.921875 8.34375 -11.921875 C 7.757812 -11.921875 7.34375 -11.851562 7.09375 -11.71875 C 6.84375 -11.59375 6.71875 -11.351562 6.71875 -11 C 6.71875 -10.925781 6.726562 -10.847656 6.75 -10.765625 C 6.769531 -10.691406 6.8125 -10.617188 6.875 -10.546875 C 6.9375 -10.472656 6.988281 -10.410156 7.03125 -10.359375 C 7.082031 -10.316406 7.164062 -10.265625 7.28125 -10.203125 C 7.40625 -10.148438 7.5 -10.109375 7.5625 -10.078125 C 7.632812 -10.046875 7.75 -10 7.90625 -9.9375 C 8.0625 -9.882812 8.175781 -9.84375 8.25 -9.8125 C 8.332031 -9.78125 8.46875 -9.734375 8.65625 -9.671875 C 8.84375 -9.617188 8.988281 -9.582031 9.09375 -9.5625 C 9.695312 -9.382812 10.222656 -9.1875 10.671875 -8.96875 C 11.128906 -8.75 11.609375 -8.453125 12.109375 -8.078125 C 12.609375 -7.703125 12.992188 -7.226562 13.265625 -6.65625 C 13.546875 -6.09375 13.6875 -5.445312 13.6875 -4.71875 C 13.6875 -1.28125 11.296875 0.4375 6.515625 0.4375 C 5.429688 0.4375 4.398438 0.269531 3.421875 -0.0625 C 2.453125 -0.394531 1.753906 -0.726562 1.328125 -1.0625 L 0.671875 -1.59375 L 2.796875 -5.15625 C 2.953125 -5.019531 3.160156 -4.859375 3.421875 -4.671875 C 3.679688 -4.484375 4.144531 -4.226562 4.8125 -3.90625 C 5.476562 -3.582031 6.054688 -3.421875 6.546875 -3.421875 C 7.628906 -3.421875 8.171875 -3.785156 8.171875 -4.515625 C 8.171875 -4.847656 8.03125 -5.109375 7.75 -5.296875 C 7.476562 -5.484375 7.015625 -5.691406 6.359375 -5.921875 C 5.703125 -6.160156 5.1875 -6.378906 4.8125 -6.578125 C 3.863281 -7.066406 3.113281 -7.617188 2.5625 -8.234375 C 2.007812 -8.859375 1.734375 -9.679688 1.734375 -10.703125 C 1.734375 -12.242188 2.328125 -13.441406 3.515625 -14.296875 C 4.710938 -15.148438 6.320312 -15.578125 8.34375 -15.578125 Z M 8.34375 -15.578125 "/></g></g></g><g fill="#ffc800" fill-opacity="1"><g transform="translate(64.69912, 25.826421)"><g><path d="M 2.796875 -1.875 C 1.378906 -3.414062 0.671875 -5.304688 0.671875 -7.546875 C 0.671875 -9.796875 1.378906 -11.695312 2.796875 -13.25 C 4.210938 -14.800781 6.015625 -15.578125 8.203125 -15.578125 C 10.203125 -15.578125 11.851562 -14.945312 13.15625 -13.6875 L 13.15625 -15.140625 L 18.375 -15.140625 L 18.375 0 L 13.21875 0 L 13.21875 -1.71875 L 13.15625 -1.71875 C 11.851562 -0.28125 10.203125 0.4375 8.203125 0.4375 C 6.015625 0.4375 4.210938 -0.332031 2.796875 -1.875 Z M 7.234375 -10.109375 C 6.554688 -9.441406 6.21875 -8.585938 6.21875 -7.546875 C 6.21875 -6.503906 6.539062 -5.65625 7.1875 -5 C 7.84375 -4.34375 8.703125 -4.015625 9.765625 -4.015625 C 10.785156 -4.015625 11.625 -4.347656 12.28125 -5.015625 C 12.945312 -5.679688 13.28125 -6.523438 13.28125 -7.546875 C 13.28125 -8.585938 12.9375 -9.441406 12.25 -10.109375 C 11.570312 -10.785156 10.742188 -11.125 9.765625 -11.125 C 8.765625 -11.125 7.921875 -10.785156 7.234375 -10.109375 Z M 7.234375 -10.109375 "/></g></g></g><g fill="#ffc800" fill-opacity="1"><g transform="translate(82.211966, 25.826421)"><g><path d="M 1.765625 0 L 1.765625 -15.140625 L 6.984375 -15.140625 L 6.984375 -13.546875 L 7.046875 -13.546875 C 8.410156 -14.898438 9.859375 -15.578125 11.390625 -15.578125 C 12.140625 -15.578125 12.878906 -15.476562 13.609375 -15.28125 C 14.347656 -15.082031 15.054688 -14.773438 15.734375 -14.359375 C 16.410156 -13.953125 16.960938 -13.367188 17.390625 -12.609375 C 17.816406 -11.847656 18.03125 -10.96875 18.03125 -9.96875 L 18.03125 0 L 12.796875 0 L 12.796875 -8.5625 C 12.796875 -9.34375 12.546875 -10.023438 12.046875 -10.609375 C 11.546875 -11.203125 10.894531 -11.5 10.09375 -11.5 C 9.300781 -11.5 8.582031 -11.191406 7.9375 -10.578125 C 7.300781 -9.972656 6.984375 -9.300781 6.984375 -8.5625 L 6.984375 0 Z M 1.765625 0 "/></g></g></g><g fill="#ffc800" fill-opacity="1"><g transform="translate(99.076142, 25.826421)"><g><path d="M 19.0625 -15.140625 L 11.859375 -7.90625 L 19.765625 0 L 13.03125 0 L 6.984375 -6.046875 L 6.984375 0 L 1.765625 0 L 1.765625 -25.375 L 6.984375 -25.375 L 6.984375 -9.859375 L 12.265625 -15.140625 Z M 19.0625 -15.140625 "/></g></g></g><g fill="#ffc800" fill-opacity="1"><g transform="translate(115.498044, 25.826421)"><g><path d="M 1.09375 3.71875 L 5.375 1.625 C 6.15625 2.914062 7.519531 3.5625 9.46875 3.5625 C 10.375 3.5625 11.210938 3.269531 11.984375 2.6875 C 12.765625 2.113281 13.15625 1.226562 13.15625 0.03125 L 13.15625 -1.09375 C 12.226562 -0.0703125 10.578125 0.4375 8.203125 0.4375 C 6.015625 0.4375 4.210938 -0.332031 2.796875 -1.875 C 1.378906 -3.414062 0.671875 -5.304688 0.671875 -7.546875 C 0.671875 -9.796875 1.378906 -11.695312 2.796875 -13.25 C 4.210938 -14.800781 6.015625 -15.578125 8.203125 -15.578125 C 10.148438 -15.578125 11.769531 -14.976562 13.0625 -13.78125 L 13.15625 -13.78125 L 13.15625 -15.140625 L 18.375 -15.140625 L 18.375 0.40625 C 18.375 2.863281 17.554688 4.757812 15.921875 6.09375 C 14.296875 7.4375 12.144531 8.109375 9.46875 8.109375 C 5.144531 8.109375 2.351562 6.644531 1.09375 3.71875 Z M 7.234375 -10.109375 C 6.554688 -9.441406 6.21875 -8.585938 6.21875 -7.546875 C 6.21875 -6.503906 6.539062 -5.65625 7.1875 -5 C 7.84375 -4.34375 8.703125 -4.015625 9.765625 -4.015625 C 10.785156 -4.015625 11.625 -4.347656 12.28125 -5.015625 C 12.945312 -5.679688 13.28125 -6.523438 13.28125 -7.546875 C 13.28125 -8.585938 12.9375 -9.441406 12.25 -10.109375 C 11.570312 -10.785156 10.742188 -11.125 9.765625 -11.125 C 8.765625 -11.125 7.921875 -10.785156 7.234375 -10.109375 Z M 7.234375 -10.109375 "/></g></g></g><g fill="#ffc800" fill-opacity="1"><g transform="translate(133.010889, 25.826421)"><g><path d="M 11.0625 0 L 7.515625 0 L -0.59375 -15.140625 L 5.421875 -15.140625 L 9.109375 -6.96875 L 12.75 -15.140625 L 16.34375 -15.140625 L 19.96875 -6.96875 L 23.65625 -15.140625 L 29.671875 -15.140625 L 21.5625 0 L 18.03125 0 L 14.546875 -7.8125 Z M 11.0625 0 "/></g></g></g><g clip-path="url(#b6216ea8a0)"><path fill="#004aad" d="M 76.308594 14.773438 C 75.5625 14.25 74.652344 13.941406 73.664062 13.941406 C 71.101562 13.941406 69.023438 16.019531 69.023438 18.578125 C 69.023438 18.707031 69.03125 18.835938 69.039062 18.964844 C 68.222656 20.023438 67.984375 20.96875 68.363281 21.636719 C 68.664062 22.160156 69.324219 22.445312 70.242188 22.445312 C 70.464844 22.445312 70.707031 22.429688 70.964844 22.394531 C 72.183594 22.230469 73.621094 21.707031 75.003906 20.90625 C 75.878906 20.402344 76.652344 19.832031 77.28125 19.257812 C 77.589844 18.972656 77.855469 18.699219 78.085938 18.425781 C 78.121094 18.382812 78.15625 18.339844 78.191406 18.304688 C 79.039062 17.246094 79.367188 16.234375 78.953125 15.53125 C 78.578125 14.851562 77.640625 14.59375 76.308594 14.773438 Z M 68.808594 21.378906 C 68.585938 20.984375 68.714844 20.390625 69.160156 19.695312 C 69.375 20.554688 69.832031 21.328125 70.449219 21.921875 C 69.625 21.964844 69.039062 21.773438 68.808594 21.378906 Z M 78.164062 17.472656 C 77.949219 16.601562 77.496094 15.839844 76.875 15.238281 C 77.699219 15.195312 78.292969 15.382812 78.515625 15.777344 C 78.738281 16.164062 78.613281 16.773438 78.164062 17.472656 Z M 78.164062 17.472656 " fill-opacity="1" fill-rule="nonzero"/></g><g clip-path="url(#c98c4d3ef7)"><path fill="#004aad" d="M 75.363281 21.269531 C 74.074219 22.015625 72.734375 22.523438 71.566406 22.71875 C 72.203125 23.039062 72.914062 23.21875 73.664062 23.21875 C 76.085938 23.21875 78.078125 21.355469 78.285156 18.984375 C 77.570312 19.773438 76.566406 20.574219 75.363281 21.269531 Z M 75.363281 21.269531 " fill-opacity="1" fill-rule="nonzero"/></g><g clip-path="url(#fb62198a03)"><path fill="#004aad" d="M 127.441406 14.773438 C 126.695312 14.25 125.785156 13.941406 124.796875 13.941406 C 122.234375 13.941406 120.15625 16.019531 120.15625 18.578125 C 120.15625 18.707031 120.164062 18.835938 120.175781 18.964844 C 119.359375 20.023438 119.117188 20.96875 119.496094 21.636719 C 119.796875 22.160156 120.457031 22.445312 121.378906 22.445312 C 121.601562 22.445312 121.839844 22.429688 122.097656 22.394531 C 123.320312 22.230469 124.753906 21.707031 126.136719 20.90625 C 127.011719 20.402344 127.785156 19.832031 128.414062 19.257812 C 128.722656 18.972656 128.988281 18.699219 129.222656 18.425781 C 129.253906 18.382812 129.289062 18.339844 129.324219 18.304688 C 130.175781 17.246094 130.5 16.234375 130.089844 15.53125 C 129.710938 14.851562 128.773438 14.59375 127.441406 14.773438 Z M 119.941406 21.378906 C 119.71875 20.984375 119.847656 20.390625 120.292969 19.695312 C 120.507812 20.554688 120.964844 21.328125 121.582031 21.921875 C 120.757812 21.964844 120.175781 21.773438 119.941406 21.378906 Z M 129.296875 17.472656 C 129.082031 16.601562 128.628906 15.839844 128.007812 15.238281 C 128.835938 15.195312 129.425781 15.382812 129.652344 15.777344 C 129.875 16.164062 129.746094 16.773438 129.296875 17.472656 Z M 129.296875 17.472656 " fill-opacity="1" fill-rule="nonzero"/></g><g clip-path="url(#bff27cdd6d)"><path fill="#004aad" d="M 126.496094 21.269531 C 125.207031 22.015625 123.867188 22.523438 122.699219 22.71875 C 123.335938 23.039062 124.050781 23.21875 124.796875 23.21875 C 127.21875 23.21875 129.210938 21.355469 129.417969 18.984375 C 128.707031 19.773438 127.699219 20.574219 126.496094 21.269531 Z M 126.496094 21.269531 " fill-opacity="1" fill-rule="nonzero"/></g></svg>