<svg xmlns="http://www.w3.org/2000/svg" xmlns:xlink="http://www.w3.org/1999/xlink" width="250" zoomAndPan="magnify" viewBox="0 0 187.5 149.999998" height="200" preserveAspectRatio="xMidYMid meet" version="1.0"><defs><g/><clipPath id="0cba636d1f"><path d="M 63.03125 68.695312 L 79.253906 68.695312 L 79.253906 81.488281 L 63.03125 81.488281 Z M 63.03125 68.695312 " clip-rule="nonzero"/></clipPath><clipPath id="65e92efa85"><path d="M 63.03125 69.558594 L 76.492188 69.558594 L 76.492188 80 L 63.03125 80 Z M 63.03125 69.558594 " clip-rule="nonzero"/></clipPath><clipPath id="bbe91fdfbe"><path d="M 67 75 L 76 75 L 76 80.777344 L 67 80.777344 Z M 67 75 " clip-rule="nonzero"/></clipPath><clipPath id="6246f88c0a"><path d="M 124.023438 68.695312 L 140.25 68.695312 L 140.25 81.488281 L 124.023438 81.488281 Z M 124.023438 68.695312 " clip-rule="nonzero"/></clipPath><clipPath id="ddfac86efa"><path d="M 124.023438 69.558594 L 137.488281 69.558594 L 137.488281 80 L 124.023438 80 Z M 124.023438 69.558594 " clip-rule="nonzero"/></clipPath><clipPath id="2fa60b3be4"><path d="M 128 75 L 137 75 L 137 80.777344 L 128 80.777344 Z M 128 75 " clip-rule="nonzero"/></clipPath></defs><g fill="#ffc800" fill-opacity="1"><g transform="translate(11.665367, 83.735362)"><g><path d="M 15.796875 -18.046875 L 22.984375 -18.046875 L 8.796875 9.15625 L 1.625 9.15625 L 7.84375 -2.8125 L -0.703125 -18.046875 L 6.46875 -18.046875 L 11.5 -8.796875 Z M 15.796875 -18.046875 "/></g></g></g><g fill="#ffc800" fill-opacity="1"><g transform="translate(30.796928, 83.735362)"><g><path d="M 9.953125 -18.578125 C 10.984375 -18.578125 12.003906 -18.457031 13.015625 -18.21875 C 14.023438 -17.988281 14.773438 -17.753906 15.265625 -17.515625 L 16.015625 -17.171875 L 13.96875 -13.09375 C 12.5625 -13.84375 11.222656 -14.21875 9.953125 -14.21875 C 9.253906 -14.21875 8.753906 -14.140625 8.453125 -13.984375 C 8.160156 -13.835938 8.015625 -13.550781 8.015625 -13.125 C 8.015625 -13.03125 8.023438 -12.9375 8.046875 -12.84375 C 8.078125 -12.75 8.125 -12.660156 8.1875 -12.578125 C 8.257812 -12.492188 8.328125 -12.421875 8.390625 -12.359375 C 8.453125 -12.304688 8.550781 -12.242188 8.6875 -12.171875 C 8.832031 -12.097656 8.945312 -12.046875 9.03125 -12.015625 C 9.113281 -11.984375 9.25 -11.929688 9.4375 -11.859375 C 9.625 -11.785156 9.765625 -11.726562 9.859375 -11.6875 C 9.953125 -11.65625 10.109375 -11.601562 10.328125 -11.53125 C 10.546875 -11.46875 10.71875 -11.425781 10.84375 -11.40625 C 11.5625 -11.1875 12.191406 -10.945312 12.734375 -10.6875 C 13.273438 -10.4375 13.84375 -10.085938 14.4375 -9.640625 C 15.039062 -9.191406 15.503906 -8.628906 15.828125 -7.953125 C 16.160156 -7.273438 16.328125 -6.5 16.328125 -5.625 C 16.328125 -1.519531 13.476562 0.53125 7.78125 0.53125 C 6.488281 0.53125 5.257812 0.332031 4.09375 -0.0625 C 2.9375 -0.46875 2.097656 -0.867188 1.578125 -1.265625 L 0.8125 -1.90625 L 3.34375 -6.15625 C 3.53125 -5.988281 3.773438 -5.796875 4.078125 -5.578125 C 4.390625 -5.359375 4.941406 -5.050781 5.734375 -4.65625 C 6.535156 -4.269531 7.226562 -4.078125 7.8125 -4.078125 C 9.101562 -4.078125 9.75 -4.515625 9.75 -5.390625 C 9.75 -5.785156 9.582031 -6.09375 9.25 -6.3125 C 8.925781 -6.539062 8.367188 -6.796875 7.578125 -7.078125 C 6.796875 -7.359375 6.179688 -7.613281 5.734375 -7.84375 C 4.609375 -8.425781 3.71875 -9.085938 3.0625 -9.828125 C 2.40625 -10.566406 2.078125 -11.546875 2.078125 -12.765625 C 2.078125 -14.597656 2.785156 -16.023438 4.203125 -17.046875 C 5.617188 -18.066406 7.535156 -18.578125 9.953125 -18.578125 Z M 9.953125 -18.578125 "/></g></g></g><g fill="#ffc800" fill-opacity="1"><g transform="translate(44.969333, 83.735362)"><g><path d="M 9.953125 -18.578125 C 10.984375 -18.578125 12.003906 -18.457031 13.015625 -18.21875 C 14.023438 -17.988281 14.773438 -17.753906 15.265625 -17.515625 L 16.015625 -17.171875 L 13.96875 -13.09375 C 12.5625 -13.84375 11.222656 -14.21875 9.953125 -14.21875 C 9.253906 -14.21875 8.753906 -14.140625 8.453125 -13.984375 C 8.160156 -13.835938 8.015625 -13.550781 8.015625 -13.125 C 8.015625 -13.03125 8.023438 -12.9375 8.046875 -12.84375 C 8.078125 -12.75 8.125 -12.660156 8.1875 -12.578125 C 8.257812 -12.492188 8.328125 -12.421875 8.390625 -12.359375 C 8.453125 -12.304688 8.550781 -12.242188 8.6875 -12.171875 C 8.832031 -12.097656 8.945312 -12.046875 9.03125 -12.015625 C 9.113281 -11.984375 9.25 -11.929688 9.4375 -11.859375 C 9.625 -11.785156 9.765625 -11.726562 9.859375 -11.6875 C 9.953125 -11.65625 10.109375 -11.601562 10.328125 -11.53125 C 10.546875 -11.46875 10.71875 -11.425781 10.84375 -11.40625 C 11.5625 -11.1875 12.191406 -10.945312 12.734375 -10.6875 C 13.273438 -10.4375 13.84375 -10.085938 14.4375 -9.640625 C 15.039062 -9.191406 15.503906 -8.628906 15.828125 -7.953125 C 16.160156 -7.273438 16.328125 -6.5 16.328125 -5.625 C 16.328125 -1.519531 13.476562 0.53125 7.78125 0.53125 C 6.488281 0.53125 5.257812 0.332031 4.09375 -0.0625 C 2.9375 -0.46875 2.097656 -0.867188 1.578125 -1.265625 L 0.8125 -1.90625 L 3.34375 -6.15625 C 3.53125 -5.988281 3.773438 -5.796875 4.078125 -5.578125 C 4.390625 -5.359375 4.941406 -5.050781 5.734375 -4.65625 C 6.535156 -4.269531 7.226562 -4.078125 7.8125 -4.078125 C 9.101562 -4.078125 9.75 -4.515625 9.75 -5.390625 C 9.75 -5.785156 9.582031 -6.09375 9.25 -6.3125 C 8.925781 -6.539062 8.367188 -6.796875 7.578125 -7.078125 C 6.796875 -7.359375 6.179688 -7.613281 5.734375 -7.84375 C 4.609375 -8.425781 3.71875 -9.085938 3.0625 -9.828125 C 2.40625 -10.566406 2.078125 -11.546875 2.078125 -12.765625 C 2.078125 -14.597656 2.785156 -16.023438 4.203125 -17.046875 C 5.617188 -18.066406 7.535156 -18.578125 9.953125 -18.578125 Z M 9.953125 -18.578125 "/></g></g></g><g fill="#ffc800" fill-opacity="1"><g transform="translate(59.141737, 83.735362)"><g><path d="M 3.34375 -2.234375 C 1.65625 -4.078125 0.8125 -6.332031 0.8125 -9 C 0.8125 -11.675781 1.65625 -13.941406 3.34375 -15.796875 C 5.03125 -17.648438 7.175781 -18.578125 9.78125 -18.578125 C 12.175781 -18.578125 14.144531 -17.828125 15.6875 -16.328125 L 15.6875 -18.046875 L 21.921875 -18.046875 L 21.921875 0 L 15.765625 0 L 15.765625 -2.046875 L 15.6875 -2.046875 C 14.144531 -0.328125 12.175781 0.53125 9.78125 0.53125 C 7.175781 0.53125 5.03125 -0.390625 3.34375 -2.234375 Z M 8.640625 -12.0625 C 7.828125 -11.269531 7.421875 -10.25 7.421875 -9 C 7.421875 -7.757812 7.804688 -6.742188 8.578125 -5.953125 C 9.359375 -5.171875 10.378906 -4.78125 11.640625 -4.78125 C 12.867188 -4.78125 13.875 -5.175781 14.65625 -5.96875 C 15.4375 -6.769531 15.828125 -7.785156 15.828125 -9.015625 C 15.828125 -10.253906 15.421875 -11.269531 14.609375 -12.0625 C 13.804688 -12.863281 12.816406 -13.265625 11.640625 -13.265625 C 10.453125 -13.265625 9.453125 -12.863281 8.640625 -12.0625 Z M 8.640625 -12.0625 "/></g></g></g><g fill="#ffc800" fill-opacity="1"><g transform="translate(80.031857, 83.735362)"><g><path d="M 2.109375 0 L 2.109375 -18.046875 L 8.34375 -18.046875 L 8.34375 -16.15625 L 8.40625 -16.15625 C 10.03125 -17.769531 11.753906 -18.578125 13.578125 -18.578125 C 14.472656 -18.578125 15.359375 -18.457031 16.234375 -18.21875 C 17.117188 -17.988281 17.960938 -17.625 18.765625 -17.125 C 19.578125 -16.632812 20.234375 -15.9375 20.734375 -15.03125 C 21.242188 -14.132812 21.5 -13.085938 21.5 -11.890625 L 21.5 0 L 15.265625 0 L 15.265625 -10.203125 C 15.265625 -11.140625 14.96875 -11.957031 14.375 -12.65625 C 13.78125 -13.363281 13 -13.71875 12.03125 -13.71875 C 11.09375 -13.71875 10.242188 -13.351562 9.484375 -12.625 C 8.722656 -11.90625 8.34375 -11.097656 8.34375 -10.203125 L 8.34375 0 Z M 2.109375 0 "/></g></g></g><g fill="#ffc800" fill-opacity="1"><g transform="translate(100.148215, 83.735362)"><g><path d="M 22.734375 -18.046875 L 14.140625 -9.4375 L 23.578125 0 L 15.546875 0 L 8.34375 -7.21875 L 8.34375 0 L 2.109375 0 L 2.109375 -30.265625 L 8.34375 -30.265625 L 8.34375 -11.75 L 14.640625 -18.046875 Z M 22.734375 -18.046875 "/></g></g></g><g fill="#ffc800" fill-opacity="1"><g transform="translate(119.737007, 83.735362)"><g><path d="M 1.296875 4.4375 L 6.40625 1.9375 C 7.34375 3.476562 8.972656 4.25 11.296875 4.25 C 12.367188 4.25 13.367188 3.90625 14.296875 3.21875 C 15.222656 2.53125 15.6875 1.46875 15.6875 0.03125 L 15.6875 -1.296875 C 14.59375 -0.078125 12.625 0.53125 9.78125 0.53125 C 7.175781 0.53125 5.03125 -0.390625 3.34375 -2.234375 C 1.65625 -4.078125 0.8125 -6.332031 0.8125 -9 C 0.8125 -11.675781 1.65625 -13.941406 3.34375 -15.796875 C 5.03125 -17.648438 7.175781 -18.578125 9.78125 -18.578125 C 12.101562 -18.578125 14.039062 -17.863281 15.59375 -16.4375 L 15.6875 -16.4375 L 15.6875 -18.046875 L 21.921875 -18.046875 L 21.921875 0.5 C 21.921875 3.425781 20.945312 5.6875 19 7.28125 C 17.050781 8.875 14.484375 9.671875 11.296875 9.671875 C 6.128906 9.671875 2.796875 7.925781 1.296875 4.4375 Z M 8.640625 -12.0625 C 7.828125 -11.269531 7.421875 -10.25 7.421875 -9 C 7.421875 -7.757812 7.804688 -6.742188 8.578125 -5.953125 C 9.359375 -5.171875 10.378906 -4.78125 11.640625 -4.78125 C 12.867188 -4.78125 13.875 -5.175781 14.65625 -5.96875 C 15.4375 -6.769531 15.828125 -7.785156 15.828125 -9.015625 C 15.828125 -10.253906 15.421875 -11.269531 14.609375 -12.0625 C 13.804688 -12.863281 12.816406 -13.265625 11.640625 -13.265625 C 10.453125 -13.265625 9.453125 -12.863281 8.640625 -12.0625 Z M 8.640625 -12.0625 "/></g></g></g><g fill="#ffc800" fill-opacity="1"><g transform="translate(140.627127, 83.735362)"><g><path d="M 13.1875 0 L 8.96875 0 L -0.703125 -18.046875 L 6.46875 -18.046875 L 10.875 -8.296875 L 15.203125 -18.046875 L 19.5 -18.046875 L 23.828125 -8.296875 L 28.21875 -18.046875 L 35.40625 -18.046875 L 25.71875 0 L 21.5 0 L 17.34375 -9.328125 Z M 13.1875 0 "/></g></g></g><g clip-path="url(#0cba636d1f)"><path fill="#ffc800" d="M 63.03125 68.695312 L 79.273438 68.695312 L 79.273438 81.488281 L 63.03125 81.488281 Z M 63.03125 68.695312 " fill-opacity="1" fill-rule="nonzero"/></g><g clip-path="url(#65e92efa85)"><path fill="#ffffff" d="M 72.992188 70.550781 C 72.097656 69.925781 71.011719 69.558594 69.832031 69.558594 C 66.78125 69.558594 64.300781 72.035156 64.300781 75.089844 C 64.300781 75.246094 64.308594 75.398438 64.320312 75.550781 C 63.347656 76.8125 63.058594 77.941406 63.511719 78.738281 C 63.871094 79.363281 64.660156 79.703125 65.753906 79.703125 C 66.023438 79.703125 66.308594 79.683594 66.617188 79.640625 C 68.070312 79.445312 69.78125 78.820312 71.433594 77.867188 C 72.476562 77.261719 73.398438 76.585938 74.148438 75.898438 C 74.515625 75.5625 74.835938 75.234375 75.113281 74.90625 C 75.152344 74.855469 75.195312 74.804688 75.234375 74.761719 C 76.25 73.503906 76.640625 72.292969 76.148438 71.453125 C 75.695312 70.644531 74.578125 70.335938 72.992188 70.550781 Z M 64.042969 78.433594 C 63.777344 77.960938 63.929688 77.253906 64.464844 76.421875 C 64.71875 77.449219 65.261719 78.371094 66 79.078125 C 65.015625 79.128906 64.320312 78.902344 64.042969 78.433594 Z M 75.203125 73.769531 C 74.949219 72.734375 74.40625 71.820312 73.667969 71.105469 C 74.652344 71.054688 75.359375 71.277344 75.625 71.75 C 75.890625 72.210938 75.738281 72.9375 75.203125 73.769531 Z M 75.203125 73.769531 " fill-opacity="1" fill-rule="nonzero"/></g><g clip-path="url(#bbe91fdfbe)"><path fill="#ffffff" d="M 71.863281 78.296875 C 70.324219 79.191406 68.726562 79.792969 67.332031 80.03125 C 68.089844 80.410156 68.941406 80.625 69.832031 80.625 C 72.722656 80.625 75.101562 78.402344 75.347656 75.574219 C 74.496094 76.515625 73.296875 77.46875 71.863281 78.296875 Z M 71.863281 78.296875 " fill-opacity="1" fill-rule="nonzero"/></g><g clip-path="url(#6246f88c0a)"><path fill="#ffc800" d="M 124.023438 68.695312 L 140.265625 68.695312 L 140.265625 81.488281 L 124.023438 81.488281 Z M 124.023438 68.695312 " fill-opacity="1" fill-rule="nonzero"/></g><g clip-path="url(#ddfac86efa)"><path fill="#ffffff" d="M 133.984375 70.550781 C 133.09375 69.925781 132.007812 69.558594 130.828125 69.558594 C 127.773438 69.558594 125.292969 72.035156 125.292969 75.089844 C 125.292969 75.246094 125.304688 75.398438 125.316406 75.550781 C 124.339844 76.8125 124.054688 77.941406 124.503906 78.738281 C 124.863281 79.363281 125.652344 79.703125 126.75 79.703125 C 127.015625 79.703125 127.304688 79.683594 127.609375 79.640625 C 129.066406 79.445312 130.777344 78.820312 132.425781 77.867188 C 133.472656 77.261719 134.394531 76.585938 135.144531 75.898438 C 135.511719 75.5625 135.828125 75.234375 136.105469 74.90625 C 136.148438 74.855469 136.1875 74.804688 136.230469 74.761719 C 137.242188 73.503906 137.632812 72.292969 137.140625 71.453125 C 136.691406 70.644531 135.574219 70.335938 133.984375 70.550781 Z M 125.039062 78.433594 C 124.773438 77.960938 124.925781 77.253906 125.457031 76.421875 C 125.714844 77.449219 126.257812 78.371094 126.996094 79.078125 C 126.011719 79.128906 125.316406 78.902344 125.039062 78.433594 Z M 136.199219 73.769531 C 135.941406 72.734375 135.398438 71.820312 134.660156 71.105469 C 135.644531 71.054688 136.351562 71.277344 136.617188 71.75 C 136.886719 72.210938 136.730469 72.9375 136.199219 73.769531 Z M 136.199219 73.769531 " fill-opacity="1" fill-rule="nonzero"/></g><g clip-path="url(#2fa60b3be4)"><path fill="#ffffff" d="M 132.859375 78.296875 C 131.320312 79.191406 129.722656 79.792969 128.328125 80.03125 C 129.085938 80.410156 129.9375 80.625 130.828125 80.625 C 133.71875 80.625 136.097656 78.402344 136.34375 75.574219 C 135.492188 76.515625 134.292969 77.46875 132.859375 78.296875 Z M 132.859375 78.296875 " fill-opacity="1" fill-rule="nonzero"/></g></svg>